<?xml version="1.0" encoding="UTF-8" standalone="no"?>
<!DOCTYPE svg PUBLIC "-//W3C//DTD SVG 1.1//EN" "http://www.w3.org/Graphics/SVG/1.1/DTD/svg11.dtd">
<svg width="100%" height="100%" viewBox="0 0 518 120" version="1.1" xmlns="http://www.w3.org/2000/svg" xmlns:xlink="http://www.w3.org/1999/xlink" xml:space="preserve" xmlns:serif="http://www.serif.com/" style="fill-rule:evenodd;clip-rule:evenodd;stroke-linecap:round;stroke-linejoin:round;stroke-miterlimit:1.5;">
    <g transform="matrix(1.63845,0,0,1.63275,-495.042,-169.503)">
        <g transform="matrix(1,0,0,1,3.5431,-2.14273e-13)">
            <g transform="matrix(1,0,0,1,442.555,160.314)">
                <g>
                    <g transform="matrix(0.11689,0,0,0.117298,-166.302,-81.0037)">
                        <g transform="matrix(1.12271,0,0,1.12271,187.688,170.561)">
                            <path d="M70.184,300.5L110.56,300.5" style="fill:none;stroke:rgb(255,0,149);stroke-width:60px;"/>
                        </g>
                        <g>
                            <g transform="matrix(1,0,0,1,12.3098,0)">
                                <g transform="matrix(1.12271,0,0,1.12271,188.851,170.561)">
                                    <path d="M94.389,300.5L308.458,300.5C371.871,300.5 388.44,176.984 308.458,161.61C255.877,151.502 228.263,177.188 228.263,216.544L228.263,395.345C228.263,395.345 272.495,395.774 310.868,395.774C356.427,395.774 457.029,355.599 457.029,220.194C457.029,125.916 370.245,68.928 300.5,68.928C166.782,68.928 137.022,181.146 137.022,221.151C137.022,243.859 135.928,398.882 135.409,471.881C135.045,523.166 170.308,533.892 170.308,533.892" style="fill:none;stroke:rgb(255,0,149);stroke-width:60px;"/>
                                </g>
                                <g transform="matrix(1.12271,0,0,1.12271,163.964,179.582)">
                                    <path d="M189.004,262.019L189.004,322.538L191.694,322.538L204.671,262.399L189.004,262.019Z" style="fill:rgb(207,0,96);"/>
                                </g>
                                <g transform="matrix(1.12271,0,0,1.12271,266.994,179.582)">
                                    <path d="M189.004,262.019L189.004,322.538L191.694,322.538L204.671,262.399L189.004,262.019Z" style="fill:rgb(207,0,96);"/>
                                </g>
                            </g>
                            <g transform="matrix(0.559402,0,0,0.562985,145.536,478.32)">
                                <path d="M476.714,422.613L476.714,344.252L499.727,344.252L499.727,352.644C502.908,349.117 505.827,346.729 508.485,345.482C512.069,343.807 516.035,342.97 520.384,342.97C528.961,342.97 535.595,345.874 540.286,351.682C544.977,357.491 547.322,364.671 547.322,373.223C547.322,382.666 544.765,389.874 539.651,394.845C534.538,399.816 528.075,402.301 520.263,402.301C516.478,402.301 513.025,401.731 509.904,400.591C506.783,399.45 503.995,397.758 501.539,395.513L501.539,422.613L476.714,422.613ZM501.357,372.796C501.357,377.286 502.425,380.618 504.559,382.791C506.693,384.965 509.391,386.052 512.652,386.052C515.511,386.052 517.907,385.009 519.84,382.925C521.773,380.84 522.739,377.304 522.739,372.315C522.739,367.718 521.733,364.341 519.719,362.186C517.706,360.03 515.25,358.952 512.35,358.952C509.21,358.952 506.592,360.039 504.498,362.212C502.404,364.386 501.357,367.914 501.357,372.796ZM553.652,344.252L576.664,344.252L576.664,353.553C578.879,349.526 581.164,346.756 583.52,345.241C585.875,343.727 588.785,342.97 592.248,342.97C595.872,342.97 599.838,343.967 604.147,345.963L596.536,361.464C593.637,360.395 591.342,359.86 589.65,359.86C586.429,359.86 583.933,361.036 582.161,363.388C579.624,366.702 578.356,372.903 578.356,381.989L578.356,401.018L553.652,401.018L553.652,344.252ZM601.597,372.796C601.597,364.137 604.899,357.001 611.503,351.388C618.107,345.776 627.026,342.97 638.26,342.97C651.106,342.97 660.81,346.266 667.373,352.858C672.648,358.168 675.286,364.707 675.286,372.475C675.286,381.205 672.014,388.359 665.471,393.936C658.927,399.513 649.877,402.301 638.321,402.301C628.012,402.301 619.677,399.985 613.315,395.352C605.503,389.615 601.597,382.096 601.597,372.796ZM626.241,372.742C626.241,377.802 627.398,381.544 629.714,383.967C632.029,386.39 634.938,387.602 638.442,387.602C641.985,387.602 644.894,386.408 647.169,384.021C649.445,381.633 650.582,377.802 650.582,372.528C650.582,367.611 649.434,363.949 647.139,361.544C644.844,359.139 642.005,357.936 638.623,357.936C635.039,357.936 632.079,359.157 629.744,361.598C627.408,364.039 626.241,367.753 626.241,372.742ZM681.615,344.252L704.568,344.252L704.568,352.538C707.869,349.081 711.202,346.622 714.564,345.161C717.926,343.7 721.983,342.97 726.735,342.97C731.848,342.97 735.895,343.771 738.875,345.375C741.855,346.979 744.291,349.366 746.184,352.538C750.049,348.832 753.573,346.31 756.754,344.974C759.935,343.638 763.861,342.97 768.532,342.97C775.417,342.97 780.793,344.778 784.659,348.395C788.524,352.012 790.457,357.669 790.457,365.366L790.457,401.018L765.814,401.018L765.814,368.68C765.814,366.114 765.25,364.208 764.122,362.961C762.472,361.001 760.418,360.021 757.962,360.021C755.062,360.021 752.727,360.947 750.955,362.8C749.183,364.653 748.298,367.629 748.298,371.727L748.298,401.018L723.654,401.018L723.654,369.749C723.654,367.255 723.493,365.562 723.171,364.671C722.647,363.246 721.741,362.096 720.453,361.223C719.164,360.35 717.654,359.914 715.923,359.914C713.104,359.914 710.789,360.858 708.977,362.747C707.165,364.635 706.259,367.736 706.259,372.047L706.259,401.018L681.615,401.018L681.615,344.252ZM799.565,422.613L799.565,344.252L822.578,344.252L822.578,352.644C825.759,349.117 828.678,346.729 831.336,345.482C834.919,343.807 838.886,342.97 843.235,342.97C851.811,342.97 858.445,345.874 863.137,351.682C867.828,357.491 870.173,364.671 870.173,373.223C870.173,382.666 867.616,389.874 862.502,394.845C857.388,399.816 850.926,402.301 843.114,402.301C839.329,402.301 835.876,401.731 832.755,400.591C829.634,399.45 826.846,397.758 824.39,395.513L824.39,422.613L799.565,422.613ZM824.208,372.796C824.208,377.286 825.275,380.618 827.41,382.791C829.544,384.965 832.242,386.052 835.503,386.052C838.362,386.052 840.758,385.009 842.691,382.925C844.624,380.84 845.59,377.304 845.59,372.315C845.59,367.718 844.584,364.341 842.57,362.186C840.557,360.03 838.101,358.952 835.201,358.952C832.06,358.952 829.443,360.039 827.349,362.212C825.255,364.386 824.208,367.914 824.208,372.796ZM905.918,322.658L905.918,344.252L919.447,344.252L919.447,360.128L905.918,360.128L905.918,380.279C905.918,382.702 906.179,384.306 906.703,385.09C907.508,386.301 908.918,386.907 910.931,386.907C912.743,386.907 915.28,386.444 918.541,385.517L920.353,400.537C914.273,401.713 908.596,402.301 903.321,402.301C897.2,402.301 892.69,401.606 889.791,400.217C886.892,398.827 884.747,396.715 883.358,393.882C881.969,391.05 881.274,386.462 881.274,380.119L881.274,360.128L872.214,360.128L872.214,344.252L881.274,344.252L881.274,333.829L905.918,322.658ZM921.126,385.303L945.528,383.272C946.535,385.838 947.944,387.673 949.756,388.778C951.568,389.882 953.984,390.435 957.004,390.435C960.306,390.435 962.863,389.811 964.675,388.564C966.084,387.638 966.789,386.479 966.789,385.09C966.789,383.522 965.863,382.31 964.01,381.455C962.682,380.849 959.158,380.101 953.44,379.21C944.904,377.891 938.974,376.671 935.652,375.549C932.33,374.426 929.532,372.528 927.257,369.856C924.982,367.183 923.844,364.137 923.844,360.716C923.844,356.974 925.072,353.749 927.529,351.041C929.985,348.333 933.367,346.31 937.676,344.974C941.984,343.638 947.763,342.97 955.011,342.97C962.662,342.97 968.309,343.486 971.953,344.52C975.597,345.553 978.637,347.157 981.074,349.33C983.51,351.504 985.533,354.444 987.144,358.15L963.829,360.181C963.225,358.364 962.219,357.027 960.809,356.172C958.876,355.032 956.541,354.462 953.803,354.462C951.024,354.462 949.001,354.898 947.733,355.771C946.464,356.644 945.83,357.705 945.83,358.952C945.83,360.341 946.635,361.393 948.246,362.105C949.857,362.818 953.36,363.459 958.756,364.03C966.93,364.849 973.01,365.99 976.997,367.451C980.983,368.912 984.033,370.996 986.147,373.704C988.261,376.413 989.318,379.388 989.318,382.631C989.318,385.909 988.201,389.099 985.966,392.199C983.731,395.299 980.208,397.767 975.396,399.602C970.584,401.437 964.031,402.355 955.736,402.355C944.018,402.355 935.673,400.876 930.7,397.918C925.727,394.96 922.535,390.756 921.126,385.303ZM1006.62,470.732L992.005,500.301C986.186,498.169 981.58,497.103 978.186,497.103C971.72,497.103 966.71,499.448 963.154,504.139C958.063,510.747 955.517,523.112 955.517,541.233L955.517,579.181L905.937,579.181L905.937,465.978L952.123,465.978L952.123,484.525C956.568,476.495 961.154,470.97 965.882,467.95C970.609,464.93 976.448,463.42 983.398,463.42C990.204,463.42 997.61,465.162 1005.62,468.645L1004.35,465.978L1056.47,465.978L1083.02,541.34L1107.63,465.978L1156.24,465.978L1105.2,586.962C1099.38,600.748 1093.44,610.058 1087.38,614.89C1078.82,621.712 1065.76,625.123 1048.23,625.123C1041.12,625.123 1030.12,624.27 1015.25,622.565L1011.38,592.292C1018.49,594.282 1026.41,595.277 1035.13,595.277C1040.95,595.277 1045.66,594.104 1049.26,591.759C1052.85,589.414 1055.9,585.221 1058.41,579.181L1006.62,470.732ZM661.384,422.914L661.384,579.181L615.198,579.181L615.198,562.446C608.733,569.552 602.833,574.349 597.5,576.836C590.388,580.105 582.468,581.739 573.74,581.739C556.203,581.739 542.808,575.876 533.554,564.151C524.301,552.426 519.674,538.178 519.674,521.407C519.674,502.646 524.786,488.292 535.009,478.343C545.232,468.394 558.223,463.42 573.982,463.42C581.66,463.42 588.63,464.557 594.893,466.831C601.157,469.105 606.713,472.516 611.562,477.064L611.562,422.914L661.384,422.914ZM611.925,522.26C611.925,513.377 609.784,506.75 605.5,502.38C601.217,498.009 595.803,495.824 589.256,495.824C583.519,495.824 578.71,497.921 574.831,502.113C570.952,506.306 569.012,513.341 569.012,523.219C569.012,532.457 571.012,539.226 575.013,543.525C579.013,547.824 583.963,549.974 589.863,549.974C596.166,549.974 601.419,547.807 605.622,543.472C609.824,539.137 611.925,532.066 611.925,522.26ZM681.846,422.914L731.183,422.914L731.183,452.44L681.846,452.44L681.846,422.914ZM681.846,465.978L731.183,465.978L731.183,579.181L681.846,579.181L681.846,465.978ZM796.255,502.646L749.099,498.276C750.877,491.027 753.443,485.325 756.797,481.167C760.151,477.01 764.979,473.404 771.283,470.348C775.809,468.145 782.032,466.44 789.951,465.232C797.871,464.024 806.438,463.42 815.651,463.42C830.44,463.42 842.32,464.148 851.29,465.605C860.261,467.062 867.736,470.099 873.717,474.719C877.919,477.916 881.232,482.447 883.657,488.309C886.081,494.172 887.294,499.768 887.294,505.098L887.294,555.091C887.294,560.42 887.677,564.595 888.445,567.615C889.213,570.636 890.89,574.491 893.476,579.181L847.169,579.181C845.31,576.267 844.098,574.047 843.532,572.519C842.966,570.991 842.401,568.593 841.835,565.324C835.37,570.795 828.945,574.704 822.56,577.049C813.832,580.176 803.69,581.739 792.133,581.739C776.779,581.739 765.121,578.612 757.161,572.359C749.2,566.105 745.22,558.395 745.22,549.228C745.22,540.629 748.089,533.559 753.827,528.016C759.565,522.473 770.152,518.351 785.587,515.651C804.094,512.382 816.095,510.09 821.591,508.775C827.086,507.461 832.905,505.737 839.047,503.606C839.047,498.276 837.794,494.545 835.289,492.413C832.784,490.281 828.379,489.215 822.076,489.215C813.994,489.215 807.933,490.352 803.892,492.626C800.74,494.403 798.195,497.743 796.255,502.646ZM839.047,525.457C832.258,527.589 825.187,529.472 817.833,531.107C807.812,533.452 801.468,535.762 798.801,538.036C796.053,540.381 794.679,543.045 794.679,546.03C794.679,549.441 796.033,552.23 798.74,554.398C801.447,556.565 805.428,557.649 810.681,557.649C816.176,557.649 821.288,556.476 826.015,554.131C830.743,551.786 834.097,548.926 836.077,545.55C838.057,542.175 839.047,537.787 839.047,532.386L839.047,525.457Z"/>
                            </g>
                        </g>
                    </g>
                </g>
            </g>
        </g>
        <g transform="matrix(0.74021,0,0,0.742794,291.143,122.207)">
            <path d="M148.022,35.399C148.022,38.663 146.678,40.007 143.862,40.007L140.47,40.007L140.47,22.023L143.798,22.023C146.87,22.023 148.022,23.495 148.022,26.631L148.022,35.399ZM140.47,69.767L140.47,44.743L143.862,44.743C150.006,44.743 152.822,41.927 152.822,35.271L152.822,26.631C152.822,19.975 149.942,17.095 143.798,17.095L135.606,17.095L135.606,69.767L140.47,69.767Z" style="fill-rule:nonzero;"/>
            <path d="M173.878,69.767C172.598,61.511 171.19,53.319 169.462,44.807C172.086,43.463 173.366,40.903 173.366,37.063L173.366,26.567C173.366,19.655 170.358,17.095 164.214,17.095L156.214,17.095L156.214,69.767L161.078,69.767L161.078,45.895L163.702,45.895C164.15,45.895 164.406,45.895 164.854,45.831C166.326,53.831 167.478,61.511 168.566,69.767L173.878,69.767ZM168.438,37.127C168.438,40.135 167.286,41.479 164.278,41.479L161.078,41.479L161.078,22.023L164.214,22.023C167.606,22.023 168.438,23.367 168.438,27.207L168.438,37.127Z" style="fill-rule:nonzero;"/>
            <path d="M176.438,61.383C176.438,67.335 179.19,70.343 184.694,70.343C190.262,70.343 193.014,67.335 193.014,61.383L193.014,25.479C193.014,19.527 190.262,16.519 184.694,16.519C179.19,16.519 176.438,19.527 176.438,25.479L176.438,61.383ZM188.15,61.383C188.15,64.135 186.998,65.543 184.694,65.543C182.454,65.543 181.302,64.135 181.302,61.383L181.302,25.479C181.302,22.791 182.454,21.447 184.694,21.447C186.998,21.447 188.15,22.791 188.15,25.479L188.15,61.383Z" style="fill-rule:nonzero;"/>
            <path d="M221.622,69.767L221.622,17.095L214.902,17.095L209.334,58.247L203.766,17.095L197.238,17.095L197.238,69.767L201.718,69.767L201.718,53.831C201.718,46.087 201.654,38.791 201.59,31.047L207.222,69.767L211.51,69.767L217.206,31.047C217.142,38.791 217.078,46.087 217.078,53.831L217.078,69.767L221.622,69.767Z" style="fill-rule:nonzero;"/>
            <path d="M238.646,35.399C238.646,38.663 237.302,40.007 234.486,40.007L231.094,40.007L231.094,22.023L234.422,22.023C237.494,22.023 238.646,23.495 238.646,26.631L238.646,35.399ZM231.094,69.767L231.094,44.743L234.486,44.743C240.63,44.743 243.446,41.927 243.446,35.271L243.446,26.631C243.446,19.975 240.566,17.095 234.422,17.095L226.23,17.095L226.23,69.767L231.094,69.767Z" style="fill-rule:nonzero;"/>
            <path d="M255.862,69.767L255.862,22.023L261.75,22.023L261.75,17.095L245.174,17.095L245.174,22.023L251.062,22.023L251.062,69.767L255.862,69.767Z" style="fill-rule:nonzero;"/>
            <path d="M274.87,61.639C274.87,64.135 273.91,65.543 271.542,65.543C268.854,65.543 268.022,63.751 268.022,60.935L268.022,50.439L263.35,50.439L263.35,61.639C263.35,67.335 265.846,70.343 271.606,70.343C277.43,70.343 279.734,67.207 279.734,61.639L279.734,54.087C279.734,49.479 279.158,47.879 277.43,45.703C275.446,43.207 271.734,40.135 269.43,37.127C268.47,35.911 268.278,35.271 268.278,33.031L268.278,25.223C268.278,22.727 269.43,21.447 271.67,21.447C274.294,21.447 274.998,23.239 274.998,25.863L274.998,34.823L279.542,34.823L279.542,25.223C279.542,19.399 277.43,16.519 271.734,16.519C266.102,16.519 263.35,19.335 263.35,25.223L263.35,33.095C263.35,36.615 263.478,37.895 265.078,39.943C266.934,42.311 270.582,45.383 273.27,48.711C274.55,50.311 274.87,50.951 274.87,54.151L274.87,61.639Z" style="fill-rule:nonzero;"/>
            <g transform="matrix(1,0,0,1,-1.64908,0)">
                <path d="M302.518,60.807C302.518,62.151 301.942,62.791 300.854,62.791L299.318,62.791L299.318,24.071L300.854,24.071C301.942,24.071 302.518,24.711 302.518,26.055L302.518,60.807ZM300.854,69.767C306.55,69.767 309.43,66.759 309.43,60.807L309.43,26.119C309.43,20.487 306.55,17.095 300.854,17.095L292.342,17.095L292.342,69.767L300.854,69.767Z" style="fill-rule:nonzero;"/>
            </g>
            <g transform="matrix(1,0,0,1,-1.64908,0)">
                <rect x="313.526" y="17.095" width="6.976" height="52.672" style="fill-rule:nonzero;"/>
            </g>
            <g transform="matrix(1,0,0,1,-1.64908,0)">
                <path d="M343.862,69.767L337.846,17.095L329.782,17.095L323.382,69.767L330.102,69.767L330.998,62.279L336.118,62.279L336.886,69.767L343.862,69.767ZM331.638,55.943C332.406,49.159 333.046,42.183 333.558,34.951C334.07,42.183 334.646,49.031 335.35,55.943L331.638,55.943Z" style="fill-rule:nonzero;"/>
            </g>
            <g transform="matrix(1,0,0,1,-1.64908,0)">
                <path d="M357.366,37.511C357.366,39.111 356.598,39.943 355.062,39.943L353.654,39.943L353.654,24.071L354.998,24.071C356.598,24.071 357.366,24.903 357.366,26.567L357.366,37.511ZM364.854,69.767C363.83,61.511 362.742,53.319 361.398,44.871C363.51,43.591 364.406,41.543 364.406,37.447L364.406,26.567C364.406,19.655 361.398,17.095 354.998,17.095L346.678,17.095L346.678,69.767L353.654,69.767L353.654,46.279L354.806,46.279C355.83,54.215 356.534,61.831 357.238,69.767L364.854,69.767Z" style="fill-rule:nonzero;"/>
            </g>
            <g transform="matrix(1,0,0,1,-1.64908,0)">
                <path d="M378.934,69.767L378.934,47.303L385.91,17.095L379.126,17.095C376.758,30.087 376.246,33.543 375.734,37.063C375.222,33.543 374.774,30.087 372.534,17.095L365.174,17.095L371.894,47.303L371.894,69.767L378.934,69.767Z" style="fill-rule:nonzero;"/>
            </g>
            <g transform="matrix(1.20002,0,0,1.20002,-40.1294,-36.4742)">
                <path d="M148.915,44.641L146.444,44.641L146.444,49.296L148.915,44.641Z" style="fill:rgb(255,0,149);"/>
            </g>
            <g transform="matrix(1.20002,0,0,1.20002,-19.5214,-36.4742)">
                <path d="M148.915,44.641L146.444,44.641L146.444,49.296L148.915,44.641Z" style="fill:rgb(255,0,149);"/>
            </g>
            <g transform="matrix(1.20002,0,0,1.20002,114.958,-36.4742)">
                <path d="M148.915,44.641L146.444,44.641L146.444,49.296L148.915,44.641Z" style="fill:rgb(255,0,149);"/>
            </g>
            <g transform="matrix(1.20002,0,0,1.20002,136.142,-36.4742)">
                <path d="M148.915,44.641L146.444,44.641L146.444,49.296L148.915,44.641Z" style="fill:rgb(255,0,149);"/>
            </g>
        </g>
    </g>
</svg>
